<?xml version="1.0" standalone="no"?><!DOCTYPE svg PUBLIC "-//W3C//DTD SVG 1.1//EN" "http://www.w3.org/Graphics/SVG/1.1/DTD/svg11.dtd">
<svg t="1687103037993" class="icon" viewBox="0 0 1024 1024" version="1.1"
  xmlns="http://www.w3.org/2000/svg" p-id="17018"
  xmlns:xlink="http://www.w3.org/1999/xlink" width="200" height="200">
  <path d="M346.88 593.28C245.216 539.776 176 435.392 176 315.648 176 141.6 322.144 0 501.824 0s325.824 141.6 325.824 315.648c0 169.312-138.336 307.968-311.264 315.36-1.44 0.192-2.88 0.32-4.384 0.32-240.8 0-436.768 162.272-436.768 361.728a30.944 30.944 0 0 1-61.888 0c0-184.448 139.456-341.76 333.536-399.776z m154.944-531.392c-145.504 0-263.936 113.856-263.936 253.76s118.432 253.76 263.936 253.76c145.504 0 263.936-113.856 263.936-253.76s-118.4-253.76-263.936-253.76zM979.712 1024a30.944 30.944 0 0 1-30.944-30.944c0-115.264-67.392-224.736-180.288-292.736a30.976 30.976 0 1 1 32.096-52.96l-0.16-0.096c131.68 79.36 210.272 208.576 210.272 345.76a30.944 30.944 0 0 1-30.944 30.944zM349.344 257.792a30.496 30.496 0 0 1 60.992 0v37.184a30.496 30.496 0 0 1-60.992 0V257.792z m264.32 0a30.528 30.528 0 0 1 60.992-0.032V294.976a30.56 30.56 0 0 1-60.992 0.064V257.792z m-107.488 196.8c-35.008 0-67.296-15.776-95.968-46.848a30.976 30.976 0 0 1 45.536-42.016l0.032 0.032c33.376 36.224 67.52 36.224 100.96 0a30.944 30.944 0 1 1 45.472 41.984l0.032-0.032c-28.672 31.104-60.96 46.848-95.968 46.848z" p-id="17019" fill="#ffffff"></path>
</svg>